PathFileType	4	(X/Y/Z)	s01c0101.trc
DataRate	CameraRate	NumFrames	NumMarkers	Units	OrigDataRate	OrigDataStartFrame	OrigNumFrames
200	200	4	47	mm	200	1250	2000
Frame#	Time	racr			lacr			c7			jug			rlel			rdr			llel			ldr			s2			lic			ric			lasi			rasi			rpsi			lpsi			rgt			lgt			rth1			rth2			rth3			rth4			rlfc			rsh1			rsh2			rsh3			rsh4			rlmal			rmmal			rcal			rtoe			rmt5			lth1			lth2			lth4			lth3			llfc			lsh1			lsh2			lsh3			lsh4			llmal			lcal			ltoe			lmt5			SBIKE			LBIKE			RBIKE			
		X1	Y1	Z1	X2	Y2	Z2	X3	Y3	Z3	X4	Y4	Z4	X5	Y5	Z5	X6	Y6	Z6	X7	Y7	Z7	X8	Y8	Z8	X9	Y9	Z9	X10	Y10	Z10	X11	Y11	Z11	X12	Y12	Z12	X13	Y13	Z13	X14	Y14	Z14	X15	Y15	Z15	X16	Y16	Z16	X17	Y17	Z17	X18	Y18	Z18	X19	Y19	Z19	X20	Y20	Z20	X21	Y21	Z21	X22	Y22	Z22	X23	Y23	Z23	X24	Y24	Z24	X25	Y25	Z25	X26	Y26	Z26	X27	Y27	Z27	X28	Y28	Z28	X29	Y29	Z29	X30	Y30	Z30	X31	Y31	Z31	X32	Y32	Z32	X33	Y33	Z33	X34	Y34	Z34	X35	Y35	Z35	X36	Y36	Z36	X37	Y37	Z37	X38	Y38	Z38	X39	Y39	Z39	X40	Y40	Z40	X41	Y41	Z41	X42	Y42	Z42	X43	Y43	Z43	X44	Y44	Z44	X45	Y45	Z45	X46	Y46	Z46	X47	Y47	Z47	
1250	6.2500	477.974471	1348.019790	-136.405041	513.786097	1290.364473	-429.420770	446.407615	1393.540656	-289.795119	448.426514	1229.448225	-279.365431	538.263024	1078.902608	-32.895524	710.524840	873.355362	-81.728926	543.837448	1035.725907	-556.837681	708.042349	855.205726	-466.206678	-72.905136	1165.953359	-286.648577	92.852505	1170.318090	-457.662232	85.068436	1192.980550	-127.059472	96.293699	1117.968099	-431.863412	113.615743	1144.579190	-159.195905	-45.992256	1212.074919	-238.291683	-47.788978	1206.693307	-343.710541	46.274505	1083.842541	-93.995943	40.799938	1025.001847	-469.784196	160.858157	1005.223531	-81.628301	236.131756	971.319173	-86.737726	315.026684	928.131081	-98.622184	260.382669	1018.977798	-104.994879	393.368992	847.269634	-122.281216	357.131708	734.132465	-87.925255	340.727801	650.908065	-89.850023	314.759671	565.974549	-97.112118	386.483372	639.967322	-127.464508	271.729969	447.958648	-109.969187	309.346421	460.877120	-191.688213	225.305467	414.823132	-164.030264	495.363873	399.367901	-141.498173	390.299822	368.178501	-74.066113	113.751481	917.777056	-476.907925	185.106384	868.729593	-466.746660	217.213569	911.671019	-462.795711	248.715455	813.359546	-449.716562	303.432977	722.462968	-427.428081	219.769763	650.336263	-459.051324	166.763980	582.635568	-450.928166	110.672434	518.764048	-435.179570	210.133186	552.406880	-418.636374	28.694204	425.199256	-417.327059	-25.437608	424.193049	-372.117396	182.997409	239.341407	-379.863513	84.952315	285.175645	-444.323877	-228.640315	891.514605	-255.135320	-21.328605	79.901255	-454.287422	-21.355502	80.342763	-54.219477	
1251	6.2550	478.360999	1347.499905	-136.030193	514.119258	1289.839099	-428.751964	446.682157	1393.028545	-289.157583	448.778130	1228.766056	-278.929627	538.130384	1078.343878	-32.069944	710.773391	873.109123	-81.724835	544.062323	1035.803912	-557.331072	708.012679	855.248520	-466.392432	-72.969169	1164.873313	-285.230966	93.008143	1170.382211	-457.191559	84.754139	1190.791775	-125.811368	96.420414	1117.749892	-431.056942	113.685734	1143.482350	-158.559757	-45.995320	1210.636206	-236.716643	-47.779838	1206.097534	-342.103992	46.518305	1080.737714	-93.245386	41.776463	1025.809557	-469.267112	160.435867	1000.328498	-81.016210	234.730600	964.425527	-86.307506	312.361862	919.159275	-98.462514	260.279811	1011.622526	-104.052845	388.774054	836.294395	-121.082701	353.808158	721.992280	-86.996677	338.957091	638.501066	-89.364958	314.776732	553.163415	-96.829413	384.533641	628.410942	-127.736200	273.527187	435.931100	-109.464629	311.156675	449.264574	-191.217683	227.253516	403.295710	-163.495167	497.604738	388.872148	-141.467568	392.795801	356.948744	-73.961617	116.527744	920.062904	-476.939084	188.604081	872.046531	-466.962015	220.041298	915.381197	-463.032087	252.788249	817.582735	-450.318622	309.064332	727.607412	-428.184741	224.211497	657.366973	-459.383777	169.816430	590.663518	-450.841906	112.969391	527.682328	-435.459132	213.057268	559.775195	-418.939970	28.920106	436.236419	-417.411266	-25.366561	436.052213	-372.170389	180.596299	248.454519	-379.953733	83.101141	295.417491	-444.221044	-228.593779	891.510179	-255.072021	-21.304005	79.908628	-454.286244	-21.344519	80.334605	-54.237996	
1252	6.2600	478.843163	1346.784644	-135.475489	514.420369	1289.180994	-428.060787	447.006218	1392.452809	-288.443017	449.132885	1228.300500	-278.433751	538.023142	1077.719640	-31.079550	710.943918	872.725581	-81.571087	544.219675	1035.753582	-557.908744	707.960693	855.304665	-466.613420	-72.975438	1163.740368	-283.644648	92.522106	1170.086772	-455.994041	84.306556	1188.361327	-124.453747	96.524771	1117.543742	-430.173607	113.708276	1141.896760	-156.974333	-45.911048	1209.168882	-235.079971	-48.100237	1205.704174	-340.361808	46.829958	1077.595233	-92.367675	42.636786	1026.567434	-468.659781	159.833797	995.446255	-80.420279	233.327285	957.490307	-85.484731	309.531232	910.169623	-98.245441	260.110636	1004.100396	-103.169558	383.874338	825.291425	-120.186589	350.453176	710.752731	-86.107966	337.308928	626.857122	-89.020582	314.979725	541.151220	-96.401218	383.440967	618.252646	-126.932613	274.596954	424.085706	-108.707057	313.188479	438.503378	-190.470097	228.757337	392.133199	-162.902082	499.295681	378.133714	-141.200830	394.658088	345.871784	-73.790933	119.252411	922.425776	-476.970430	192.085146	875.553706	-467.251823	222.558502	919.677315	-463.468437	257.351972	822.229585	-451.232537	314.893802	733.271084	-428.967718	228.812571	664.789459	-459.857359	173.352266	599.076316	-451.166840	115.626848	536.826858	-435.746088	216.204786	567.351427	-419.360309	29.837233	447.380177	-417.505706	-24.673516	448.093556	-372.258067	178.801796	257.616675	-379.963679	81.976758	305.920587	-444.256245	-228.556373	891.512660	-255.014340	-21.281978	79.894533	-454.266564	-21.348290	80.335642	-54.223098	
1253	6.2650	479.329935	1346.073963	-134.686991	514.821125	1288.355977	-427.360989	447.416396	1391.900714	-287.679392	449.572944	1227.769026	-277.831324	537.995619	1076.905878	-30.030063	710.771650	872.155039	-80.815707	544.359837	1035.503114	-558.480271	707.922679	855.356456	-466.816549	-72.882831	1162.581520	-281.954160	92.629937	1169.687086	-455.250031	84.069765	1185.850361	-123.064058	96.669921	1117.315451	-429.135151	113.852137	1140.387584	-155.815948	-45.705827	1207.655740	-233.354484	-48.294498	1205.068439	-338.279894	47.198486	1074.499080	-91.322927	43.361818	1027.344206	-468.095293	159.250861	990.758883	-79.659301	231.729399	950.748934	-84.702027	306.470939	901.297623	-98.037663	259.753120	996.679516	-102.247056	379.158063	814.792273	-119.073394	346.916196	700.376392	-85.273824	335.616283	616.314657	-88.411941	315.175399	530.153104	-95.948539	381.796267	608.780322	-126.569427	275.470269	412.633876	-108.191979	313.859332	426.575109	-190.148344	229.796077	381.319408	-162.269413	500.445328	367.159765	-140.938552	395.958404	334.783244	-73.615164	121.919065	924.872403	-476.986846	195.561261	879.363353	-467.717010	225.202578	924.067751	-463.789214	261.664008	826.978090	-452.243023	320.932710	739.602359	-429.704055	233.679865	672.066785	-460.066009	177.223029	607.267142	-451.310335	118.493229	546.089384	-435.958014	219.481240	575.175355	-419.638956	31.289880	458.475110	-417.529817	-23.347670	459.890808	-372.153456	177.673570	266.929043	-379.951428	81.610953	316.534892	-444.241078	-228.519119	891.513057	-254.937605	-21.267307	79.909911	-454.247769	-21.340883	80.321810	-54.203909	
